<mxfile host="app.diagrams.net" agent="Mozilla/5.0 (Windows NT 10.0; Win64; x64) AppleWebKit/537.36 (KHTML, like Gecko) Chrome/132.0.0.0 Safari/537.36 Edg/132.0.0.0" version="26.0.10">
  <diagram name="Page-1" id="929967ad-93f9-6ef4-fab6-5d389245f69c">
    <mxGraphModel dx="1003" dy="793" grid="1" gridSize="10" guides="1" tooltips="1" connect="1" arrows="1" fold="1" page="1" pageScale="1.5" pageWidth="1169" pageHeight="826" background="none" math="0" shadow="0">
      <root>
        <mxCell id="0" style=";html=1;" />
        <mxCell id="1" style=";html=1;" parent="0" />
        <mxCell id="1672d66443f91eb5-23" value="Title" style="text;strokeColor=none;fillColor=none;html=1;fontSize=24;fontStyle=1;verticalAlign=middle;align=center;" parent="1" vertex="1">
          <mxGeometry x="580" y="280" width="500" height="40" as="geometry" />
        </mxCell>
        <mxCell id="kc-IIqIBlsOipo_ezzUq-1" value="&lt;p style=&quot;margin: 0px ; margin-top: 4px ; margin-left: 10px ; text-align: left&quot;&gt;&lt;b&gt;USC&lt;/b&gt; [UseCase] Global&lt;/p&gt;" style="html=1;strokeWidth=1;shape=mxgraph.sysml.package;html=1;overflow=fill;whiteSpace=wrap;fillColor=none;gradientColor=none;fontSize=12;align=center;labelX=146.19;" parent="1" vertex="1">
          <mxGeometry x="581.5" y="405" width="500" height="430" as="geometry" />
        </mxCell>
        <mxCell id="kc-IIqIBlsOipo_ezzUq-2" value="Acquérir les données météorologiques" style="shape=ellipse;html=1;strokeWidth=3;fontStyle=1;whiteSpace=wrap;align=center;perimeter=ellipsePerimeter;" parent="1" vertex="1">
          <mxGeometry x="931.5" y="415" width="140" height="70" as="geometry" />
        </mxCell>
        <mxCell id="kc-IIqIBlsOipo_ezzUq-3" value="Acquérir la résistance du terrain" style="shape=ellipse;html=1;strokeWidth=3;fontStyle=1;whiteSpace=wrap;align=center;perimeter=ellipsePerimeter;" parent="1" vertex="1">
          <mxGeometry x="931.5" y="525" width="140" height="70" as="geometry" />
        </mxCell>
        <mxCell id="kc-IIqIBlsOipo_ezzUq-4" value="Déplacer le pénétromètre" style="shape=ellipse;html=1;strokeWidth=3;fontStyle=1;whiteSpace=wrap;align=center;perimeter=ellipsePerimeter;" parent="1" vertex="1">
          <mxGeometry x="931.5" y="645" width="140" height="70" as="geometry" />
        </mxCell>
        <mxCell id="kc-IIqIBlsOipo_ezzUq-5" value="Géolocaliser" style="shape=ellipse;html=1;strokeWidth=3;fontStyle=1;whiteSpace=wrap;align=center;perimeter=ellipsePerimeter;" parent="1" vertex="1">
          <mxGeometry x="691.5" y="575" width="140" height="70" as="geometry" />
        </mxCell>
        <mxCell id="kc-IIqIBlsOipo_ezzUq-7" value="Environemment climatique" style="shape=umlActor;html=1;verticalLabelPosition=bottom;verticalAlign=top;align=center;" parent="1" vertex="1">
          <mxGeometry x="1141.5" y="420" width="30" height="60" as="geometry" />
        </mxCell>
        <mxCell id="kc-IIqIBlsOipo_ezzUq-8" value="Terrain de course&lt;div&gt;&lt;br&gt;&lt;/div&gt;" style="shape=umlActor;html=1;verticalLabelPosition=bottom;verticalAlign=top;align=center;" parent="1" vertex="1">
          <mxGeometry x="1141.5" y="530" width="30" height="60" as="geometry" />
        </mxCell>
        <mxCell id="kc-IIqIBlsOipo_ezzUq-9" value="" style="edgeStyle=none;html=1;endArrow=none;verticalAlign=bottom;rounded=0;entryX=1;entryY=0.5;entryDx=0;entryDy=0;" parent="1" source="kc-IIqIBlsOipo_ezzUq-7" target="kc-IIqIBlsOipo_ezzUq-2" edge="1">
          <mxGeometry width="160" relative="1" as="geometry">
            <mxPoint x="978.5" y="575" as="sourcePoint" />
            <mxPoint x="1138.5" y="575" as="targetPoint" />
          </mxGeometry>
        </mxCell>
        <mxCell id="kc-IIqIBlsOipo_ezzUq-11" value="" style="edgeStyle=none;html=1;endArrow=none;verticalAlign=bottom;rounded=0;entryX=1;entryY=0.5;entryDx=0;entryDy=0;" parent="1" source="kc-IIqIBlsOipo_ezzUq-8" target="kc-IIqIBlsOipo_ezzUq-3" edge="1">
          <mxGeometry width="160" relative="1" as="geometry">
            <mxPoint x="978.5" y="535" as="sourcePoint" />
            <mxPoint x="1138.5" y="535" as="targetPoint" />
          </mxGeometry>
        </mxCell>
        <mxCell id="kc-IIqIBlsOipo_ezzUq-16" style="edgeStyle=orthogonalEdgeStyle;rounded=0;orthogonalLoop=1;jettySize=auto;html=1;exitX=0.5;exitY=1;exitDx=0;exitDy=0;" parent="1" edge="1">
          <mxGeometry relative="1" as="geometry">
            <mxPoint x="751.5" y="515" as="sourcePoint" />
            <mxPoint x="751.5" y="515" as="targetPoint" />
          </mxGeometry>
        </mxCell>
        <mxCell id="kc-IIqIBlsOipo_ezzUq-18" value="&amp;lt;&amp;lt;include&amp;gt;&amp;gt;" style="edgeStyle=none;html=1;endArrow=open;verticalAlign=bottom;dashed=1;labelBackgroundColor=none;rounded=0;exitX=0;exitY=0;exitDx=0;exitDy=0;entryX=1;entryY=1;entryDx=0;entryDy=0;" parent="1" source="kc-IIqIBlsOipo_ezzUq-3" target="kc-IIqIBlsOipo_ezzUq-26" edge="1">
          <mxGeometry width="160" relative="1" as="geometry">
            <mxPoint x="711.5" y="575" as="sourcePoint" />
            <mxPoint x="801.5051006962588" y="504.4922942185756" as="targetPoint" />
          </mxGeometry>
        </mxCell>
        <mxCell id="kc-IIqIBlsOipo_ezzUq-19" value="&amp;lt;&amp;lt;include&amp;gt;&amp;gt;" style="edgeStyle=none;html=1;endArrow=open;verticalAlign=bottom;dashed=1;labelBackgroundColor=none;rounded=0;exitX=0;exitY=0.5;exitDx=0;exitDy=0;entryX=1;entryY=0;entryDx=0;entryDy=0;" parent="1" source="kc-IIqIBlsOipo_ezzUq-2" target="kc-IIqIBlsOipo_ezzUq-26" edge="1">
          <mxGeometry width="160" relative="1" as="geometry">
            <mxPoint x="891.5" y="676" as="sourcePoint" />
            <mxPoint x="801.5051006962588" y="455.5077057814243" as="targetPoint" />
          </mxGeometry>
        </mxCell>
        <mxCell id="kc-IIqIBlsOipo_ezzUq-20" value="&amp;lt;&amp;lt;include&amp;gt;&amp;gt;" style="edgeStyle=none;html=1;endArrow=open;verticalAlign=bottom;dashed=1;labelBackgroundColor=none;rounded=0;exitX=0;exitY=0;exitDx=0;exitDy=0;entryX=0.5;entryY=1;entryDx=0;entryDy=0;" parent="1" source="kc-IIqIBlsOipo_ezzUq-5" target="kc-IIqIBlsOipo_ezzUq-26" edge="1">
          <mxGeometry width="160" relative="1" as="geometry">
            <mxPoint x="901.5" y="686" as="sourcePoint" />
            <mxPoint x="751.5" y="515" as="targetPoint" />
          </mxGeometry>
        </mxCell>
        <mxCell id="kc-IIqIBlsOipo_ezzUq-21" value="&amp;lt;&amp;lt;include&amp;gt;&amp;gt;" style="edgeStyle=none;html=1;endArrow=open;verticalAlign=bottom;dashed=1;labelBackgroundColor=none;rounded=0;exitX=0.5;exitY=1;exitDx=0;exitDy=0;entryX=0.5;entryY=0;entryDx=0;entryDy=0;" parent="1" source="kc-IIqIBlsOipo_ezzUq-3" target="kc-IIqIBlsOipo_ezzUq-4" edge="1">
          <mxGeometry width="160" relative="1" as="geometry">
            <mxPoint x="911.5" y="696" as="sourcePoint" />
            <mxPoint x="681.5" y="624" as="targetPoint" />
          </mxGeometry>
        </mxCell>
        <mxCell id="kc-IIqIBlsOipo_ezzUq-22" value="&amp;lt;&amp;lt;extend&amp;gt;&amp;gt;" style="edgeStyle=none;html=1;startArrow=open;endArrow=none;startSize=12;verticalAlign=bottom;dashed=1;labelBackgroundColor=none;rounded=0;exitX=0;exitY=0.5;exitDx=0;exitDy=0;entryX=1;entryY=0.5;entryDx=0;entryDy=0;" parent="1" source="kc-IIqIBlsOipo_ezzUq-3" target="kc-IIqIBlsOipo_ezzUq-5" edge="1">
          <mxGeometry width="160" relative="1" as="geometry">
            <mxPoint x="711.5" y="575" as="sourcePoint" />
            <mxPoint x="871.5" y="575" as="targetPoint" />
          </mxGeometry>
        </mxCell>
        <mxCell id="kc-IIqIBlsOipo_ezzUq-26" value="Archiver les données" style="shape=ellipse;html=1;strokeWidth=3;fontStyle=1;whiteSpace=wrap;align=center;perimeter=ellipsePerimeter;" parent="1" vertex="1">
          <mxGeometry x="641.5" y="460" width="140" height="70" as="geometry" />
        </mxCell>
        <mxCell id="kc-IIqIBlsOipo_ezzUq-27" value="Analyser les données" style="shape=ellipse;html=1;strokeWidth=3;fontStyle=1;whiteSpace=wrap;align=center;perimeter=ellipsePerimeter;" parent="1" vertex="1">
          <mxGeometry x="641.5" y="745" width="140" height="70" as="geometry" />
        </mxCell>
        <mxCell id="kc-IIqIBlsOipo_ezzUq-28" value="Consulter" style="shape=ellipse;html=1;strokeWidth=3;fontStyle=1;whiteSpace=wrap;align=center;perimeter=ellipsePerimeter;" parent="1" vertex="1">
          <mxGeometry x="931.5" y="745" width="140" height="70" as="geometry" />
        </mxCell>
        <mxCell id="kc-IIqIBlsOipo_ezzUq-30" value="Opérateur" style="shape=umlActor;html=1;verticalLabelPosition=bottom;verticalAlign=top;align=center;" parent="1" vertex="1">
          <mxGeometry x="1121.5" y="750" width="30" height="60" as="geometry" />
        </mxCell>
        <mxCell id="kc-IIqIBlsOipo_ezzUq-33" value="" style="edgeStyle=none;html=1;endArrow=none;verticalAlign=bottom;rounded=0;entryX=1;entryY=0.5;entryDx=0;entryDy=0;" parent="1" source="kc-IIqIBlsOipo_ezzUq-30" target="kc-IIqIBlsOipo_ezzUq-28" edge="1">
          <mxGeometry width="160" relative="1" as="geometry">
            <mxPoint x="976.5" y="1015" as="sourcePoint" />
            <mxPoint x="1136.5" y="1015" as="targetPoint" />
          </mxGeometry>
        </mxCell>
        <mxCell id="kc-IIqIBlsOipo_ezzUq-35" value="&amp;lt;&amp;lt;include&amp;gt;&amp;gt;" style="edgeStyle=none;html=1;endArrow=open;verticalAlign=bottom;dashed=1;labelBackgroundColor=none;rounded=0;exitX=0;exitY=0.5;exitDx=0;exitDy=0;entryX=1;entryY=0.5;entryDx=0;entryDy=0;" parent="1" source="kc-IIqIBlsOipo_ezzUq-28" target="kc-IIqIBlsOipo_ezzUq-27" edge="1">
          <mxGeometry width="160" relative="1" as="geometry">
            <mxPoint x="756.5" y="1065" as="sourcePoint" />
            <mxPoint x="916.5" y="1065" as="targetPoint" />
          </mxGeometry>
        </mxCell>
        <mxCell id="kc-IIqIBlsOipo_ezzUq-37" value="&amp;lt;&amp;lt;extend&amp;gt;&amp;gt;" style="edgeStyle=none;html=1;startArrow=open;endArrow=none;startSize=12;verticalAlign=bottom;dashed=1;labelBackgroundColor=none;rounded=0;exitX=0;exitY=1;exitDx=0;exitDy=0;entryX=0;entryY=0;entryDx=0;entryDy=0;" parent="1" source="kc-IIqIBlsOipo_ezzUq-26" target="kc-IIqIBlsOipo_ezzUq-27" edge="1">
          <mxGeometry width="160" relative="1" as="geometry">
            <mxPoint x="881.5" y="755" as="sourcePoint" />
            <mxPoint x="1041.5" y="755" as="targetPoint" />
          </mxGeometry>
        </mxCell>
      </root>
    </mxGraphModel>
  </diagram>
</mxfile>
